#!OML:ASF F:\VICON\USERDATA\INSTALL\rory3\rory3.ASF
:FULLY-SPECIFIED
:DEGREES
43
root -7.313824146720075 17.753313431811367 4.9948256031077225 5.096434393410888 37.3175278584772 -7.300324026124514
lfemur -5.361778164646138 22.41512940505312 9.559998490742078
ltibia 39.34814872219134
lfoot 11.62283454746253 4.3577052433600585
ltoes -24.778048387441938
rfemur -30.09790312401305 12.606606840085137 26.460286941840348
rtibia 32.73257600642091
rfoot -1.0647555426759343 32.15851630702702
rtoes 35.1468754496473
lowerback 6.893990137929751 -9.605607639283296 -17.648344285333522
upperback -1.0246537458530716 -14.378559066693525 -4.426925487028392
thorax -1.239001989027965 -6.690821513415022 5.10289895086215
lowerneck -6.516986359673073 21.38813890446122 -0.07958053097929949
upperneck 10.969873991768502 30.962363038521712 -12.777395741447698
head 7.081841409007499 13.963985468084061 -1.0286843138300612
lclavicle -7.013465829506621e-15 -5.228046454399273e-15
lhumerus 111.68620067395666 -35.63508683013696 44.77497045107599
lradius 36.71868661506716
lwrist 3.438454435156636
lhand -19.136335239698532 0.6127410012154471
lfingers 7.125020000000003
lthumb -173.7182468415938 220.21912473363867
rclavicle -7.014614995585013e-15 -5.152990410914786e-15
rhumerus 34.42216829508116 -25.67107917395063 -56.55049206837242
rradius 100.11083854434517
rwrist -6.689138954565134
rhand -62.84218165029833 17.3391035141005
rfingers 7.125020000000003
rthumb -36.7851269017508 -5.461869819347564
44
root -7.315693673183015 17.761659419983143 4.884645171003715 5.642124592269738 39.286946632635114 -7.230672994483626
lfemur -7.070304968917192 23.58772618395527 9.117452494925043
ltibia 38.9364597965642
lfoot 8.537105744436497 4.242386455779332
ltoes -23.02444677051057
rfemur -30.856569094204865 11.268527272884125 26.527159316984978
rtibia 32.60488179277527
rfoot -1.267648607113566 31.776985338177482
rtoes 33.76117200822288
lowerback 7.666737265310812 -9.632381132589291 -17.430355706860272
upperback -0.7667427375581419 -14.461067376876612 -4.148036689095718
thorax -1.120641815544675 -6.824660934384147 5.298811851603862
lowerneck -6.566032893919245 21.18051509137407 -0.2834988307114236
upperneck 11.093250499424453 30.74620038038383 -12.711420157600507
head 7.3080363052362785 13.792350107099685 -1.1025833370540425
lclavicle -7.013547878461101e-15 -5.213125654647607e-15
lhumerus 110.36872098639704 -35.010930094518066 45.53963257019489
lradius 36.258661703654326
lwrist 3.7651493910158713
lhand -18.155596007748564 0.7916414684052668
lfingers 7.125020000000003
lthumb -173.03595351031473 227.02562625136503
rclavicle -7.01456234953694e-15 -5.1531324976985974e-15
rhumerus 34.50101386911176 -24.81706750053457 -57.90545177465859
rradius 98.49759529574644
rwrist -9.202003935038611
rhand -62.139222010852194 16.038373818642288
rfingers 7.125020000000003
rthumb -36.81537844647757 -5.63967759017972
45
root -7.324645599046834 17.756676770832286 4.751650903704775 6.273050837566743 41.70214422918827 -7.225286882788197
lfemur -9.13724903184985 24.86907958522553 8.504605398518393
ltibia 38.467276452590895
lfoot 5.5244724686046816 4.278879232299289
ltoes -20.592486571288998
rfemur -31.91240498775405 9.837396553109048 26.498135732295058
rtibia 32.51730453194729
rfoot -1.5356948652377813 31.173168838633302
rtoes 32.470610285766526
lowerback 8.372715721524582 -9.666106211666342 -17.167051149389085
upperback -0.4507051992692874 -14.592675913189849 -3.820075265389147
thorax -0.9512002824817439 -6.986089083594672 5.557552550398336
lowerneck -6.58570903695653 20.900832102069362 -0.3169726113678124
upperneck 11.271813467288222 30.502568617300927 -12.723432199102568
head 7.524688857456038 13.655815823490476 -1.1506932711176663
lclavicle -7.016313329413353e-15 -5.203072672281804e-15
lhumerus 109.02545467820298 -35.06774995194769 46.27683622300454
lradius 35.78341940596417
lwrist 4.317770928772383
lhand -16.78650817517863 0.8346836172741128
lfingers 7.125020000000003
lthumb -172.26391747067268 233.75643322934943
rclavicle -7.016499325730047e-15 -5.154556921496315e-15
rhumerus 34.227269675648486 -23.95727303066981 -59.53425791909256
rradius 97.09219782994376
rwrist -11.79367968524777
rhand -61.51669989536663 15.434365568295714
rfingers 7.125020000000003
rthumb -36.840695302666546 -5.593840299874791
46
root -7.342178064653174 17.757566412827607 4.595786829712594 7.090308077147128 44.475886454948395 -6.956104031625287
lfemur -11.627270990854022 26.18584196638733 7.60832333960105
ltibia 37.99837944534063
lfoot 2.3715542869788315 4.379250893949475
ltoes -17.59824183296256
rfemur -32.87537974810816 8.250277371445065 26.33335935520681
rtibia 32.43348652949409
rfoot -1.733253337898173 30.46515025501442
rtoes 30.919405696929104
lowerback 8.984019303492374 -9.660736705280906 -16.733939473170302
upperback -0.07660568470181328 -14.659782745701895 -3.480238362207298
thorax -0.7334349256107656 -7.079862490234207 5.830142942356889
lowerneck -6.779696251271759 20.411185566439322 -0.2287961495340261
upperneck 11.618017822655046 30.067728796244527 -12.822384644678454
head 7.797789810172188 13.449997169457912 -1.2340245463416737
lclavicle -7.014690878562562e-15 -5.1951321175425856e-15
lhumerus 107.52005547935235 -35.051988172366805 47.44549278055656
lradius 35.24429237764731
lwrist 4.558289465134674
lhand -15.595754135970907 1.0731488060867989
lfingers 7.125020000000003
lthumb -171.51023236156746 245.0480520298854
rclavicle -7.016706770762484e-15 -5.1547518549433086e-15
rhumerus 33.90418230142727 -23.11754172930332 -61.29512428680086
rradius 95.47429281081068
rwrist -14.578760379961754
rhand -60.93783703047607 14.724414211660513
rfingers 7.125020000000003
rthumb -37.01414164056458 -5.819052280321021
47
root -7.36284173529953 17.748090039394143 4.4252417778395925 7.593615882178483 47.60485471673623 -7.18978298719199
lfemur -14.643963619050544 27.32816588923246 6.399929571986336
ltibia 37.55005012218671
lfoot -0.26285410386224584 4.200166134686068
ltoes -14.166184892142404
rfemur -33.84069771898956 6.581885244737105 25.96762118666412
rtibia 32.344585427495
rfoot -1.9176386342504195 29.522688687346566
rtoes 29.865005798301084
lowerback 9.441236404048528 -9.639165339786503 -16.14196880421195
upperback 0.3632535514765518 -14.678517700217048 -3.0608924345315325
thorax -0.46006734344969935 -7.163758427304707 6.159835323156001
lowerneck -7.108543790673263 19.849335238585518 -0.03228459756797997
upperneck 12.04915423719602 29.563804075207955 -12.990369589937885
head 8.077838894450828 13.164139930324188 -1.3227646533340445
lclavicle -7.016536508764624e-15 -5.188650607227542e-15
lhumerus 105.62706006233581 -35.404655466808315 48.65132499972268
lradius 34.629728995741935
lwrist 5.088612749856946
lhand -14.152641738511372 1.4204855111960768
lfingers 7.125020000000003
lthumb -170.76553589334782 256.96354976986413
rclavicle -7.016198770133033e-15 -5.154419338690267e-15
rhumerus 33.10204374819863 -22.172761180592474 -63.144606790622476
rradius 94.08039146363728
rwrist -17.30794466419542
rhand -60.221384097382625 13.567263032111079
rfingers 7.125020000000003
rthumb -37.09209225840347 -6.504361670436322
48
root -7.383088170194716 17.7325638056455 4.24204534067588 7.651761230951621 51.08770418056518 -7.930955384791432
lfemur -18.23378243819432 28.260783080349874 4.7954979341831905
ltibia 37.12385469110271
lfoot -2.4464358742295857 3.6875796883118
ltoes -10.987809148572484
rfemur -34.64493427123544 4.852488237792617 25.34178545673728
rtibia 32.279854070270886
rfoot -2.0833717833791745 28.320253613782718
rtoes 28.31122557145195
lowerback 9.708572599265676 -9.584796260049194 -15.449877531499423
upperback 0.8885357803913507 -14.585529816759207 -2.5130490644361876
thorax -0.09635286040983293 -7.261349058232055 6.539220847281063
lowerneck -7.66296448686336 18.965389060825842 0.24520089361710362
upperneck 12.551840867445119 28.83194823410733 -13.319121835884971
head 8.43833553410785 12.782522905865793 -1.4778456682938457
lclavicle -7.020121263288624e-15 -5.1865143466816195e-15
lhumerus 103.30048580707258 -35.7680003825387 50.46904448973274
lradius 33.82354171994867
lwrist 5.296048223627178
lhand -12.768321806805483 1.9656938355354967
lfingers 7.125020000000003
lthumb -170.08590328445052 267.57369766200435
rclavicle -7.016126025924261e-15 -5.154422407296448e-15
rhumerus 32.01392242073281 -21.168252846267883 -65.08230359347887
rradius 92.52912838690924
rwrist -20.335608991488467
rhand -59.542881552086 11.686931170973711
rfingers 7.125020000000003
rthumb -37.022574283414215 -8.004154316591443
49
root -7.404127012521448 17.724646029342722 4.045907991396886 7.431055419213777 55.10348438302779 -8.709242668385983
lfemur -22.449724884797643 28.76460421391906 2.8077433531104816
ltibia 36.844854485534746
lfoot -3.745145843888931 2.4694203954523672
ltoes -8.703457367960926
rfemur -35.14051437187473 3.067519837735824 24.3775768240245
rtibia 32.210552501254135
rfoot -2.3102836194670324 26.839994302210478
rtoes 25.595847719951387
lowerback 9.79522348118843 -9.567555536533936 -14.536702437375896
upperback 1.4605760250631574 -14.5063738454686 -1.8481198632818365
thorax 0.34565014996157606 -7.3473812760146515 6.958299584904231
lowerneck -8.105148672371591 17.9774609932587 0.6910767879194395
upperneck 13.095630621441678 27.84306981942104 -13.70865727165485
head 8.802863847976191 12.248265503843504 -1.6843900925568236
lclavicle -7.022529553574918e-15 -5.189776852587315e-15
lhumerus 100.13170647283303 -36.30058207230211 52.68220805103648
lradius 32.83594139781772
lwrist 6.010656535617567
lhand -11.334318683994676 2.737925002275862
lfingers 7.125020000000003
lthumb -169.57467039627608 275.3406674924075
rclavicle -7.015430677120229e-15 -5.154069331058693e-15
rhumerus 30.4208693788457 -19.99077092742305 -67.05545098047061
rradius 90.92446158946585
rwrist -23.35561926017651
rhand -58.426445088314985 9.745157412548505
rfingers 7.125020000000003
rthumb -36.49847080652506 -9.963785419025578
